# xmcd
#
# Track frame offsets:
#	150
#	10647
#	21459
#	34774
#	44976
#	57688
#	72137
#	85545
#	97391
#	104946
#	119743
#	132788
#	142907
#	157361
#	169809
#
# Disc length: 2395 seconds
#
# Revision: 1
# Processed by: cddbd v1.5.2PL0 Copyright (c) Steve Scherf et al.
# Submitted via: CDmax 2.0
#
DISCID=e609590f
DTITLE=Various Artist - Simply Country - Queens
DYEAR=2008
DGENRE=Country
TTITLE0=Lovesick Blues - Patsy Cline
TTITLE1=Crazy - Loretta Lynn
TTITLE2=I Don't Claim To Be An Engel - Kitty Wells
TTITLE3=Release Me - Dolly Parton
TTITLE4=Rose Garden - Lynn Anderson
TTITLE5=Harper Valley P.T.A. - Jeannie C. Riley
TTITLE6=Tennessee Waltz - Patti Page
TTITLE7=The End Of The World - Skeeter Davis
TTITLE8=All Alone Am I - Brenda Lee
TTITLE9=Both Sides Now - Anne Murray
TTITLE10=Daddy - Donna Fargo
TTITLE11=Three Cigaretes in An Ashtray - Patesy Cline
TTITLE12=Coal Miner's Daughter - Loretta Lynn
TTITLE13=Stand By You Man - Lynn Anderson
TTITLE14=My Arms Stay Open Late - Billie Jo Spears
EXTD=
EXTT0=
EXTT1=
EXTT2=
EXTT3=
EXTT4=
EXTT5=
EXTT6=
EXTT7=
EXTT8=
EXTT9=
EXTT10=
EXTT11=
EXTT12=
EXTT13=
EXTT14=
PLAYORDER=
